<svg width="26" height="26" viewBox="0 0 26 26" fill="none" xmlns="http://www.w3.org/2000/svg">
<path d="M13 2.16666C10.7015 2.16666 8.49706 3.07976 6.87174 4.70507C5.24643 6.33039 4.33334 8.53479 4.33334 10.8333C4.33334 16.6833 11.9708 23.2917 12.2958 23.5733C12.4921 23.7412 12.7418 23.8334 13 23.8334C13.2582 23.8334 13.5079 23.7412 13.7042 23.5733C14.0833 23.2917 21.6667 16.6833 21.6667 10.8333C21.6667 8.53479 20.7536 6.33039 19.1283 4.70507C17.5029 3.07976 15.2985 2.16666 13 2.16666V2.16666ZM13 21.2875C10.6925 19.1208 6.5 14.4517 6.5 10.8333C6.5 9.10942 7.18482 7.45612 8.40381 6.23714C9.6228 5.01815 11.2761 4.33333 13 4.33333C14.7239 4.33333 16.3772 5.01815 17.5962 6.23714C18.8152 7.45612 19.5 9.10942 19.5 10.8333C19.5 14.4517 15.3075 19.1317 13 21.2875ZM13 6.5C12.143 6.5 11.3051 6.75414 10.5925 7.2303C9.87992 7.70645 9.3245 8.38322 8.99652 9.17504C8.66854 9.96685 8.58273 10.8381 8.74993 11.6787C8.91714 12.5193 9.32985 13.2914 9.93587 13.8975C10.5419 14.5035 11.314 14.9162 12.1546 15.0834C12.9952 15.2506 13.8665 15.1648 14.6583 14.8368C15.4501 14.5088 16.1269 13.9534 16.603 13.2408C17.0792 12.5282 17.3333 11.6904 17.3333 10.8333C17.3333 9.68406 16.8768 8.58186 16.0641 7.7692C15.2515 6.95654 14.1493 6.5 13 6.5ZM13 13C12.5715 13 12.1526 12.8729 11.7963 12.6348C11.44 12.3968 11.1623 12.0584 10.9983 11.6625C10.8343 11.2666 10.7914 10.8309 10.875 10.4106C10.9586 9.99034 11.1649 9.60428 11.4679 9.30127C11.771 8.99825 12.157 8.7919 12.5773 8.7083C12.9976 8.62469 13.4332 8.6676 13.8291 8.83159C14.2251 8.99558 14.5634 9.27329 14.8015 9.6296C15.0396 9.9859 15.1667 10.4048 15.1667 10.8333C15.1667 11.408 14.9384 11.9591 14.5321 12.3654C14.1257 12.7717 13.5746 13 13 13Z" fill="black"/>
</svg>
